#!OML:ASF F:\VICON\USERDATA\INSTALL\rory3\rory3.ASF
:FULLY-SPECIFIED
:DEGREES
223
root 11.9702 17.983 11.5155 -4.63652 -16.7769 3.74408
lowerback 11.6718 1.47623 -3.38752
upperback 1.222 1.47317 -0.709359
thorax -5.33235 0.786521 0.929459
lowerneck -14.4925 -10.3405 -14.8893
upperneck 25.2522 -14.9611 13.619
head 13.1042 -6.62674 5.20163
rclavicle 2.86933e-014 -8.74653e-015
rhumerus -33.136 -12.0406 -82.2712
rradius 37.4655
rwrist 3.97612
rhand -15.3962 10.7554
rfingers 7.12502
rthumb 10.7826 -18.9478
lclavicle 2.86933e-014 -8.74653e-015
lhumerus -36.504 4.44908 80.8933
lradius 29.1648
lwrist -7.66124
lhand -20.6839 24.0966
lfingers 7.12502
lthumb 5.67958 54.0005
rfemur -10.5624 -7.39925 17.4069
rtibia 59.2593
rfoot -4.66669 -6.37636
rtoes 19.767
lfemur -3.76766 -3.16544 -18.5302
ltibia 9.6374
lfoot -0.270258 -11.0763
ltoes -11.4334
224
root 11.983 17.985 11.5834 -4.54603 -17.6649 3.7366
lowerback 11.742 1.39338 -3.41662
upperback 1.21286 1.35997 -0.634181
thorax -5.37874 0.732704 1.04154
lowerneck -14.6705 -10.5035 -15.0857
upperneck 25.2096 -15.1696 13.7581
head 13.1957 -6.71476 5.23771
rclavicle 1.79403e-014 4.87022e-015
rhumerus -32.779 -11.5981 -82.397
rradius 37.0192
rwrist 4.18806
rhand -15.4974 10.8421
rfingers 7.12502
rthumb 10.685 -18.8662
lclavicle 1.79403e-014 4.87022e-015
lhumerus -36.4763 4.35079 80.9196
lradius 29.3205
lwrist -7.23687
lhand -20.9181 24.3078
lfingers 7.12502
lthumb 5.45338 54.2176
rfemur -11.4508 -8.53985 17.1402
rtibia 59.6143
rfoot -5.2594 -6.42302
rtoes 20.0984
lfemur -3.61043 -3.04814 -18.5654
ltibia 9.87575
lfoot -0.481559 -10.141
ltoes -10.6874
225
root 11.9944 17.9907 11.6574 -4.48217 -18.6992 3.7854
lowerback 11.7385 1.37516 -3.40533
upperback 1.21737 1.33653 -0.640271
thorax -5.37058 0.720441 1.03283
lowerneck -14.8584 -10.6051 -15.1217
upperneck 25.2347 -15.3385 13.8921
head 13.2947 -6.76981 5.25567
rclavicle 1.30577e-014 -4.96962e-016
rhumerus -32.4095 -11.3807 -82.5383
rradius 36.5072
rwrist 4.49771
rhand -15.7087 10.8971
rfingers 7.12502
rthumb 10.4811 -18.8216
lclavicle 1.30577e-014 -4.96962e-016
lhumerus -36.4531 4.19867 80.8649
lradius 29.4682
lwrist -7.02941
lhand -21.2086 24.4524
lfingers 7.12502
lthumb 5.17296 54.3692
rfemur -12.2717 -9.51225 16.7988
rtibia 59.8216
rfoot -5.85753 -6.1386
rtoes 19.0234
lfemur -3.44761 -2.7835 -18.6787
ltibia 10.2122
lfoot -0.920708 -9.24363
ltoes -10.6963
226
root 12.0032 17.9963 11.7318 -4.47664 -19.8791 3.97335
lowerback 11.6832 1.43556 -3.54291
upperback 1.2575 1.39839 -0.691321
thorax -5.30239 0.751567 1.04834
lowerneck -15.0919 -10.6209 -15.0288
upperneck 25.2762 -15.404 14.0045
head 13.3766 -6.76726 5.26465
rclavicle -5.32991e-015 -1.68967e-015
rhumerus -32.2313 -11.199 -82.6882
rradius 36.4274
rwrist 4.59385
rhand -15.6666 10.9725
rfingers 7.12502
rthumb 10.5218 -18.7441
lclavicle -5.32991e-015 -1.68967e-015
lhumerus -36.4634 4.0673 80.7738
lradius 29.7805
lwrist -6.87229
lhand -20.865 24.5831
lfingers 7.12502
lthumb 5.50466 54.4916
rfemur -13.1233 -10.3141 16.345
rtibia 59.8823
rfoot -6.35465 -5.73184
rtoes 17.7167
lfemur -3.3326 -2.54965 -18.9315
ltibia 10.7322
lfoot -1.57782 -8.1135
ltoes -11.2622
227
root 12.0104 17.9963 11.7974 -4.38016 -21.0345 3.85955
lowerback 11.7735 1.45752 -3.51004
upperback 1.24947 1.43239 -0.59394
thorax -5.36441 0.769174 1.12433
lowerneck -15.1824 -10.6559 -15.0369
upperneck 25.2489 -15.4798 14.1156
head 13.4116 -6.78656 5.29037
rclavicle 1.98785e-016 1.82882e-014
rhumerus -32.5548 -10.6112 -82.8363
rradius 37.1761
rwrist 4.3248
rhand -15.4898 10.8971
rfingers 7.12502
rthumb 10.6923 -18.8108
lclavicle 1.98785e-016 1.82882e-014
lhumerus -36.4924 3.98052 80.7361
lradius 29.9559
lwrist -6.68269
lhand -20.5875 24.5645
lfingers 7.12502
lthumb 5.77264 54.4658
rfemur -13.9699 -11.1403 16.2968
rtibia 59.7873
rfoot -6.66722 -5.40869
rtoes 17.0292
lfemur -3.27688 -2.33426 -18.8597
ltibia 11.29
lfoot -2.29009 -7.003
ltoes -12.0383
228
root 12.0173 17.9906 11.8619 -4.23525 -22.149 3.621
lowerback 11.8959 1.42319 -3.33523
upperback 1.20161 1.41078 -0.460112
thorax -5.48106 0.757987 1.16666
lowerneck -15.1039 -10.6449 -15.0513
upperneck 25.1913 -15.486 14.1692
head 13.3794 -6.79148 5.31384
rclavicle -2.78547e-014 1.27222e-014
rhumerus -32.8665 -10.0106 -82.9261
rradius 37.7775
rwrist 4.29747
rhand -15.4738 10.7948
rfingers 7.12502
rthumb 10.7078 -18.9124
lclavicle -2.78547e-014 1.27222e-014
lhumerus -36.5279 3.78857 80.76
lradius 30.0267
lwrist -6.23731
lhand -20.9231 24.8451
lfingers 7.12502
lthumb 5.44863 54.7551
rfemur -14.7751 -12.0122 16.431
rtibia 59.563
rfoot -6.94865 -5.04968
rtoes 16.4238
lfemur -3.25402 -2.25472 -18.6597
ltibia 11.8788
lfoot -2.88993 -5.8843
ltoes -13.4531
229
root 12.0198 17.9852 11.9277 -4.17563 -23.1797 3.73146
lowerback 11.8725 1.38571 -3.45961
upperback 1.17963 1.34492 -0.457095
thorax -5.49117 0.72863 1.251
lowerneck -14.9664 -10.5994 -15.0749
upperneck 25.0365 -15.475 14.3583
head 13.3073 -6.77958 5.39654
rclavicle 5.57094e-014 1.39149e-015
rhumerus -32.8221 -9.87886 -82.9587
rradius 37.7955
rwrist 4.53636
rhand -15.4401 10.7302
rfingers 7.12502
rthumb 10.7402 -18.9752
lclavicle 5.57094e-014 1.39149e-015
lhumerus -36.545 3.48103 80.7472
lradius 30.1786
lwrist -5.65462
lhand -21.3304 25.1328
lfingers 7.12502
lthumb 5.05531 55.0525
rfemur -15.6042 -12.88 16.2554
rtibia 59.2311
rfoot -7.26209 -4.53531
rtoes 15.4728
lfemur -3.37971 -2.22049 -18.8049
ltibia 12.6579
lfoot -3.35676 -4.88208
ltoes -14.6422
230
root 12.0179 17.9845 11.9977 -4.13028 -24.2532 3.92336
lowerback 11.7719 1.39173 -3.64378
upperback 1.1766 1.32968 -0.507264
thorax -5.44074 0.723839 1.30648
lowerneck -15.2147 -10.6312 -14.9033
upperneck 25.1851 -15.5522 14.3124
head 13.4139 -6.78995 5.32892
rclavicle 9.81499e-015 -7.95139e-015
rhumerus -32.8192 -10.0068 -82.9735
rradius 37.8627
rwrist 4.61446
rhand -15.2747 10.7447
rfingers 7.12502
rthumb 10.8998 -18.9524
lclavicle 9.81499e-015 -7.95139e-015
lhumerus -36.5809 3.28894 80.5866
lradius 30.416
lwrist -5.28499
lhand -21.2241 25.3612
lfingers 7.12502
lthumb 5.15795 55.2784
rfemur -16.3891 -13.6587 15.9847
rtibia 58.7919
rfoot -7.70419 -3.81903
rtoes 15.2327
lfemur -3.57758 -2.07288 -19.0303
ltibia 13.6188
lfoot -3.94387 -3.86415
ltoes -14.6728
231
root 12.0157 17.9782 12.0648 -4.08391 -25.4396 3.86101
lowerback 11.8231 1.39362 -3.66167
upperback 1.18738 1.33096 -0.439324
thorax -5.46001 0.725413 1.38682
lowerneck -15.529 -10.6958 -14.7354
upperneck 25.445 -15.634 14.1035
head 13.564 -6.81523 5.1954
rclavicle 2.46493e-014 7.95139e-016
rhumerus -32.835 -9.94163 -82.9788
rradius 38.055
rwrist 4.63508
rhand -15.1161 10.7519
rfingers 7.12502
rthumb 11.0528 -18.9371
lclavicle 2.46493e-014 7.95139e-016
lhumerus -36.5696 3.31803 80.3963
lradius 30.496
lwrist -5.07614
lhand -20.8435 25.7517
lfingers 7.12502
lthumb 5.52547 55.6597
rfemur -17.0554 -14.2213 15.9885
rtibia 58.2573
rfoot -8.27049 -3.22395
rtoes 15.9984
lfemur -3.65661 -1.79001 -18.9941
ltibia 14.5674
lfoot -4.60181 -2.83061
ltoes -14.7622
232
root 12.0155 17.9668 12.1266 -4.02397 -26.6429 3.75893
lowerback 11.9197 1.37279 -3.63255
upperback 1.19676 1.3066 -0.363616
thorax -5.50378 0.713761 1.45231
lowerneck -15.4745 -10.6913 -14.8339
upperneck 25.3677 -15.6713 14.3119
head 13.5604 -6.82438 5.28777
rclavicle 3.54085e-015 3.18055e-015
rhumerus -32.752 -9.85738 -82.9777
rradius 38.1187
rwrist 4.66507
rhand -14.9592 11.0336
rfingers 7.12502
rthumb 11.2041 -18.6472
lclavicle 3.54085e-015 3.18055e-015
lhumerus -36.4995 3.25682 80.2409
lradius 30.4386
lwrist -4.89923
lhand -21.0702 25.8109
lfingers 7.12502
lthumb 5.30654 55.7245
rfemur -17.7532 -14.7859 16.1
rtibia 57.6395
rfoot -9.01849 -2.64399
rtoes 14.9339
lfemur -3.68719 -1.65653 -18.9417
ltibia 15.4421
lfoot -5.33093 -1.72148
ltoes -16.5767
233
root 12.0142 17.956 12.1879 -3.92809 -27.7206 3.78048
lowerback 11.9388 1.32935 -3.68485
upperback 1.17449 1.24108 -0.348651
thorax -5.53593 0.683453 1.50787
lowerneck -15.4908 -10.6274 -14.7076
upperneck 25.3152 -15.6556 14.4513
head 13.5422 -6.79305 5.32488
rclavicle -1.14425e-014 7.35503e-015
rhumerus -32.6898 -9.99295 -82.9451
rradius 38.0897
rwrist 4.66862
rhand -14.9831 11.5188
rfingers 7.12502
rthumb 11.181 -18.1633
lclavicle -1.14425e-014 7.35503e-015
lhumerus -36.4592 3.12292 80.0474
lradius 30.4457
lwrist -5.08664
lhand -20.929 25.7314
lfingers 7.12502
lthumb 5.44292 55.6415
rfemur -18.5394 -15.4651 16.1178
rtibia 56.9331
rfoot -9.94187 -1.89162
rtoes 11.8123
lfemur -3.84533 -1.59393 -19.0263
ltibia 16.3224
lfoot -5.99635 -0.595349
ltoes -18.0946
234
root 12.0081 17.9461 12.2518 -3.8559 -28.7782 3.84167
lowerback 11.9525 1.26025 -3.8121
upperback 1.13347 1.133 -0.309796
thorax -5.58431 0.634876 1.63786
lowerneck -15.644 -10.5077 -14.3447
upperneck 25.4373 -15.5147 14.2293
head 13.5382 -6.71456 5.20318
rclavicle -3.75827e-014 1.23246e-014
rhumerus -32.6549 -10.056 -82.8945
rradius 38.064
rwrist 4.56392
rhand -15.0331 11.6307
rfingers 7.12502
rthumb 11.1328 -18.054
lclavicle -3.75827e-014 1.23246e-014
lhumerus -36.6398 3.09952 79.8112
lradius 30.7059
lwrist -5.55132
lhand -20.0486 26.0853
lfingers 7.12502
lthumb 6.29289 55.9718
rfemur -19.2667 -16.0092 16.1041
rtibia 56.124
rfoot -10.7358 -1.33844
rtoes 10.4135
lfemur -3.97234 -1.37741 -19.129
ltibia 17.1047
lfoot -6.45332 0.375931
ltoes -18.3351
235
root 12.0017 17.9458 12.3185 -3.77959 -29.9896 3.86012
lowerback 11.9159 1.23904 -3.85492
upperback 1.13321 1.10301 -0.265368
thorax -5.56416 0.621121 1.71429
lowerneck -15.8341 -10.3642 -14.0955
upperneck 25.5806 -15.3405 14.1147
head 13.5691 -6.6186 5.1507
rclavicle -4.95968e-014 1.27222e-014
rhumerus -32.5521 -10.2315 -82.814
rradius 38.0639
rwrist 4.58056
rhand -14.8662 11.6905
rfingers 7.12502
rthumb 11.2938 -17.9855
lclavicle -4.95968e-014 1.27222e-014
lhumerus -36.8508 2.83721 79.7129
lradius 31.0352
lwrist -5.56869
lhand -19.8479 26.5437
lfingers 7.12502
lthumb 6.48667 56.4243
rfemur -19.9362 -16.4413 16.1367
rtibia 55.1857
rfoot -11.221 -1.05648
rtoes 10.6126
lfemur -3.91071 -1.13811 -19.2173
ltibia 17.6827
lfoot -6.82831 1.33953
ltoes -20.0416
